<svg xmlns="http://www.w3.org/2000/svg" viewBox="0 0 360 132" role="img" aria-labelledby="title desc">
  <title id="title">Apps del Sur</title>
  <desc id="desc">Logo horizontal de Apps del Sur con isotipo de ubicación, datos y avance.</desc>
  <defs>
    <linearGradient id="mark" x1="22" y1="111" x2="100" y2="15" gradientUnits="userSpaceOnUse">
      <stop stop-color="#064E3B"/>
      <stop offset=".52" stop-color="#059669"/>
      <stop offset="1" stop-color="#7ED957"/>
    </linearGradient>
    <linearGradient id="text" x1="136" y1="32" x2="318" y2="105" gradientUnits="userSpaceOnUse">
      <stop stop-color="#064E3B"/>
      <stop offset="1" stop-color="#0F2D2A"/>
    </linearGradient>
    <filter id="shadow" x="-15%" y="-18%" width="130%" height="140%" color-interpolation-filters="sRGB">
      <feDropShadow dx="0" dy="4" stdDeviation="3" flood-color="#03241F" flood-opacity=".2"/>
    </filter>
  </defs>
  <g filter="url(#shadow)">
    <path d="M65 10c29.1 0 52.6 23.2 52.6 51.8 0 16.8-8.6 31.4-18.9 43.3-8 9.2-17.2 16.9-26.2 21.7a15.1 15.1 0 0 1-15 0c-9-4.8-18.2-12.5-26.2-21.7-10.3-11.9-18.9-26.5-18.9-43.3C12.4 33.2 35.9 10 65 10Z" fill="url(#mark)"/>
    <path d="M31.5 69.7c6.6 7.5 16.2 11.6 28.3 11.6 20 0 36.7-11 50.4-24.5" stroke="#fff" stroke-width="9.5" stroke-linecap="round"/>
    <rect x="34" y="58" width="16" height="26" rx="4.5" fill="#fff" opacity=".68"/>
    <rect x="56" y="48" width="16" height="36" rx="4.5" fill="#fff" opacity=".86"/>
    <rect x="79" y="34" width="16" height="50" rx="4.5" fill="#fff"/>
    <path d="M91.5 86.5 116 78l-8.5 24.5-5.1-11.1-13.7 13.7-8.1-8.1 13.7-13.7-2.8 3.2Z" fill="#fff"/>
  </g>
  <g filter="url(#shadow)">
    <text x="138" y="58" fill="url(#text)" font-family="Inter, ui-sans-serif, system-ui, -apple-system, BlinkMacSystemFont, Segoe UI, sans-serif" font-size="50" font-weight="850" letter-spacing="-1.6">Apps</text>
    <text x="138" y="108" fill="url(#text)" font-family="Inter, ui-sans-serif, system-ui, -apple-system, BlinkMacSystemFont, Segoe UI, sans-serif" font-size="50" font-weight="850" letter-spacing="-1.6">del Sur</text>
  </g>
</svg>
