<svg xmlns="http://www.w3.org/2000/svg" viewBox="0 0 360 420" role="img" aria-labelledby="title desc">
  <title id="title">Apps del Sur</title>
  <desc id="desc">Logo vertical de Apps del Sur.</desc>
  <defs>
    <linearGradient id="mark" x1="105" y1="145" x2="240" y2="10" gradientUnits="userSpaceOnUse">
      <stop stop-color="#064E3B"/>
      <stop offset=".52" stop-color="#059669"/>
      <stop offset="1" stop-color="#7ED957"/>
    </linearGradient>
    <linearGradient id="text" x1="94" y1="236" x2="266" y2="338" gradientUnits="userSpaceOnUse">
      <stop stop-color="#064E3B"/>
      <stop offset="1" stop-color="#0F2D2A"/>
    </linearGradient>
    <filter id="shadow" x="-20%" y="-10%" width="140%" height="125%" color-interpolation-filters="sRGB">
      <feDropShadow dx="0" dy="5" stdDeviation="3.6" flood-color="#03241F" flood-opacity=".2"/>
    </filter>
    <filter id="wordShadow" x="-10%" y="-12%" width="120%" height="128%" color-interpolation-filters="sRGB">
      <feDropShadow dx="0" dy="5" stdDeviation="2.8" flood-color="#03241F" flood-opacity=".18"/>
    </filter>
  </defs>
  <g transform="translate(116 12)" filter="url(#shadow)">
    <path d="M64 8c29.6 0 53.6 23.6 53.6 52.7 0 17.1-8.8 32-19.2 44.1-8.1 9.4-17.6 17.3-26.8 22.1a15.6 15.6 0 0 1-15.2 0c-9.2-4.8-18.7-12.7-26.8-22.1C19.2 92.7 10.4 77.8 10.4 60.7 10.4 31.6 34.4 8 64 8Z" fill="url(#mark)"/>
    <path d="M29.3 69.5c5.9 8.2 16.4 13.2 29.6 13.2 20.1 0 36.6-11.5 50.7-25.5" stroke="#fff" stroke-width="10" stroke-linecap="round"/>
    <rect x="33" y="56" width="17" height="28" rx="5" fill="#fff" opacity=".7"/>
    <rect x="55" y="45" width="17" height="39" rx="5" fill="#fff" opacity=".86"/>
    <rect x="78" y="30" width="17" height="54" rx="5" fill="#fff"/>
    <path d="M91.7 85.4 117 76.6l-8.8 25.3-5.1-11.3-14 14-8.1-8.1 14-14-3.3 2.9Z" fill="#fff"/>
  </g>
  <g filter="url(#wordShadow)">
    <text x="180" y="258" text-anchor="middle" fill="url(#text)" font-family="Arial Rounded MT Bold, Nunito, Inter, ui-sans-serif, system-ui, -apple-system, BlinkMacSystemFont, Segoe UI, sans-serif" font-size="76" font-weight="800" letter-spacing="-2.2">Apps</text>
    <text x="180" y="333" text-anchor="middle" fill="url(#text)" font-family="Arial Rounded MT Bold, Nunito, Inter, ui-sans-serif, system-ui, -apple-system, BlinkMacSystemFont, Segoe UI, sans-serif" font-size="76" font-weight="800" letter-spacing="-2.2">del Sur</text>
  </g>
</svg>
